<svg width="176" height="191" viewBox="0 0 176 191" fill="none" xmlns="http://www.w3.org/2000/svg">
<g clip-path="url(#clip0)">
<path d="M94.3673 20.0594C100.476 36.3923 120.467 33.9344 134.032 30.4458C137.284 29.5737 140.616 28.6222 143.551 26.9572C146.487 25.2922 148.946 22.5965 149.898 19.3458C150.929 15.6986 149.739 11.655 147.677 8.4836C145.773 5.55002 142.996 2.45786 140.061 0.554999C138.792 3.80573 134.27 4.04358 131.176 4.04358C126.813 4.04358 122.847 2.37858 118.801 1.18929C114.676 -3.39746e-06 110.233 -0.237861 106.108 0.872143C97.7785 2.85429 91.1149 11.3379 94.3673 20.0594Z" fill="black"/>
<path d="M106.822 129.395C106.584 129.395 106.505 129.395 106.346 129.474L106.822 129.395Z" fill="black"/>
<path d="M106.822 129.395C106.584 129.395 106.505 129.395 106.346 129.474L106.822 129.395Z" fill="black"/>
<path d="M89.211 49.8709V34.5687C89.211 21.5658 101.348 10.9415 116.183 10.9415C123.56 10.9415 130.303 13.5579 135.222 17.8393C140.14 22.1208 143.155 27.988 143.155 34.4894V49.7916" stroke="black" stroke-width="2" stroke-miterlimit="10"/>
<path d="M143.155 66.4417V84.1225C143.155 97.1254 131.017 107.75 116.183 107.75C101.348 107.75 89.211 97.1254 89.211 84.1225V66.4417" stroke="black" stroke-width="2" stroke-miterlimit="10"/>
<path d="M100.158 71.9124C107.738 71.9124 113.882 65.7714 113.882 58.1959C113.882 50.6205 107.738 44.4795 100.158 44.4795C92.5789 44.4795 86.4344 50.6205 86.4344 58.1959C86.4344 65.7714 92.5789 71.9124 100.158 71.9124Z" stroke="black" stroke-width="2" stroke-miterlimit="10"/>
<path d="M132.128 71.9124C139.708 71.9124 145.852 65.7714 145.852 58.1959C145.852 50.6205 139.708 44.4795 132.128 44.4795C124.548 44.4795 118.404 50.6205 118.404 58.1959C118.404 65.7714 124.548 71.9124 132.128 71.9124Z" stroke="black" stroke-width="2" stroke-miterlimit="10"/>
<path d="M113.803 57.7995H118.563" stroke="black" stroke-width="4" stroke-miterlimit="10"/>
<path d="M127.21 105.609H127.289V130.425" stroke="black" stroke-width="2" stroke-miterlimit="10"/>
<path d="M107.457 130.108V106.243" stroke="black" stroke-width="2" stroke-miterlimit="10"/>
<path d="M100.158 61.3674C101.911 61.3674 103.332 59.9475 103.332 58.1959C103.332 56.4444 101.911 55.0245 100.158 55.0245C98.4059 55.0245 96.9852 56.4444 96.9852 58.1959C96.9852 59.9475 98.4059 61.3674 100.158 61.3674Z" fill="black"/>
<path d="M132.128 61.3674C133.881 61.3674 135.301 59.9475 135.301 58.1959C135.301 56.4444 133.881 55.0245 132.128 55.0245C130.376 55.0245 128.955 56.4444 128.955 58.1959C128.955 59.9475 130.376 61.3674 132.128 61.3674Z" fill="black"/>
<path d="M87.3864 63.3495H85.7998C84.0546 63.3495 82.468 64.0631 81.278 65.1731C80.1674 66.3624 79.4535 67.9481 79.4535 69.6924C79.4535 73.181 82.3093 76.0353 85.7998 76.0353H88.973" stroke="black" stroke-width="2" stroke-miterlimit="10"/>
<path d="M144.9 63.3495H146.487C149.977 63.3495 152.833 66.2038 152.833 69.6924C152.833 71.4367 152.119 73.0224 150.929 74.2117C149.818 75.3217 148.232 76.0353 146.487 76.0353H143.313" stroke="black" stroke-width="2" stroke-miterlimit="10"/>
<path d="M89.0523 67.7896V71.5953H86.5138C85.4825 71.5953 84.6099 70.7231 84.6099 69.6924C84.6099 69.1374 84.8479 68.6617 85.1652 68.3446C85.4825 68.0274 85.9585 67.7896 86.5138 67.7896H89.0523Z" fill="black"/>
<path d="M143.313 71.5953V67.7896H145.852C146.883 67.7896 147.756 68.6617 147.756 69.6924C147.756 70.2474 147.518 70.7231 147.201 71.0403C146.883 71.3574 146.407 71.5953 145.852 71.5953H143.313Z" fill="black"/>
<path d="M116.183 71.2781C116.183 71.2781 112.216 77.621 118.563 76.0353" stroke="black" stroke-width="2" stroke-miterlimit="10" stroke-linecap="round"/>
<path d="M109.043 89.5932C109.043 89.5932 115.39 97.4425 124.116 89.5932" stroke="black" stroke-width="2" stroke-miterlimit="10" stroke-linecap="round"/>
<path d="M93.9707 41.9423C93.9707 41.9423 98.3338 37.5816 105.87 41.1495" stroke="black" stroke-width="3" stroke-miterlimit="10" stroke-linecap="round"/>
<path d="M138.395 41.9423C138.395 41.9423 134.032 37.5816 126.496 41.1495" stroke="black" stroke-width="3" stroke-miterlimit="10" stroke-linecap="round"/>
<path d="M89.0523 32.9037C89.0523 32.9037 78.1049 24.4201 82.8646 14.1129C87.6244 3.80572 102.697 9.35574 102.697 9.35574C102.697 9.35574 108.726 35.0444 89.0523 32.9037Z" fill="black"/>
<path d="M34.6325 96.2539C33.6806 93.1617 32.332 91.6553 31.618 87.136C30.1108 78.0974 30.6661 69.4552 26.9376 69.7723C25.4304 69.9309 24.9544 71.5166 25.0337 72.3888L26.2237 86.6603C25.7477 88.3253 24.8751 87.691 24.8751 87.691C24.8751 87.691 21.7812 75.0052 21.3846 72.7059C20.9879 70.4859 19.8773 69.2173 18.3701 69.3759C15.7522 69.6138 16.7835 72.7852 17.0215 73.9745L19.798 89.356C20.036 90.8624 18.4494 90.3867 18.4494 90.3867L12.2617 75.0052C11.5478 73.3402 10.1992 73.7366 10.1992 73.7366C7.73998 74.2916 8.69192 76.5116 8.69192 76.5116L14.007 92.8446C14.007 92.9239 14.007 93.0031 14.007 93.0824C14.0863 93.9546 12.9757 94.4303 12.4997 93.6374C10.8338 91.1003 7.58132 87.0567 4.88413 85.471C3.53553 84.6781 2.58358 84.8367 2.02828 85.2331C1.47298 85.6295 1.39365 86.3431 1.79029 86.8981L11.7064 101.249C14.007 116.472 23.2885 118.295 23.2885 118.295L28.8415 140.02L37.0124 174.271L38.0437 178.632C38.9956 182.834 42.8034 185.847 47.0872 185.847H51.4503C54.5441 185.847 56.686 182.834 55.7341 179.98L35.9811 119.881L35.1085 114.648C37.0124 112.508 38.2817 107.988 38.9163 104.737C39.313 102.993 39.4716 101.17 39.313 99.4253C38.9956 95.0646 41.9308 87.2153 41.9308 87.2153C41.6928 85.7088 38.837 86.9774 38.837 86.9774C35.6638 88.0874 34.8705 93.1617 34.6325 95.9367C34.5532 97.126 33.9979 98.1567 33.2046 98.9496C28.4449 103.627 28.0482 108.86 28.0482 108.86" stroke="black" stroke-width="2" stroke-miterlimit="10"/>
<path d="M21.3053 72.7846C20.9086 70.5646 20.1946 68.8996 18.2907 69.4546C15.7522 70.1681 16.7042 72.8638 16.9422 74.0531" stroke="black" stroke-width="2" stroke-miterlimit="10"/>
<path d="M175.68 190.207V191H158.386L154.737 170.782V191H79.8501V179.504C79.8501 176.729 79.8501 173.954 79.9295 171.179C78.2635 172.526 76.439 173.636 74.2971 174.826L57.7173 185.926C57.638 186.005 57.5587 186.005 57.4793 186.084C56.7654 186.481 55.9721 186.719 55.0995 186.719L51.6516 186.849C51.6516 186.849 55.3374 185.45 56.2101 181.961L50.2604 162.14C58.7486 155.083 72.4725 134.707 98.8098 130.505C99.9204 130.267 101.11 130.029 102.38 129.87C103.57 129.712 104.759 129.553 106.108 129.474L106.981 129.395V129.553L106.505 129.633C106.663 129.633 106.743 129.633 106.901 129.553H106.981C107.139 129.553 107.298 129.553 107.457 129.474H107.536L108.329 129.395V132.408C108.329 132.804 108.488 133.28 108.885 133.676C110.075 135.024 112.772 136.055 116.024 136.293C116.579 136.372 117.135 136.372 117.69 136.372C117.769 136.372 117.849 136.372 117.849 136.372H117.928C121.101 136.293 124.036 135.421 125.544 134.152C126.02 133.756 126.496 133.201 126.496 132.408V129.633L127.289 129.791H127.448C127.686 129.791 127.844 129.87 128.082 129.87V129.633L129.113 129.791C158.227 133.359 175.68 155.956 175.68 190.207Z" fill="black"/>
<path d="M57.638 185.846L57.4 186.005C57.4793 186.005 57.5587 185.926 57.638 185.846Z" fill="black"/>
</g>
<defs>
<clipPath id="clip0">
<rect width="175" height="191" fill="white" transform="translate(0.679688)"/>
</clipPath>
</defs>
</svg>
